# xmcd
#
# Track frame offsets:
#	150
#	14686
#	23487
#	37788
#	49584
#	62545
#	79079
#	91645
#	106596
#	117805
#	130826
#	144646
#	161731
#	172533
#	186942
#	197966
#
# Disc length: 2716 seconds
#
# Revision: 0
# Processed by: cddbd v1.5.1PL0 Copyright (c) Steve Scherf et al.
# Submitted via: dBpowerAMP V4.0
#
DISCID=bc0a9a10
DTITLE=Jive Sharks - It's Joogie
DYEAR=2000
DGENRE=Blues
TTITLE0=Chicken shack
TTITLE1=Party girl
TTITLE2=All of me
TTITLE3=Choo Choo Ch'boogie
TTITLE4=Why don't you eat 
TTITLE5=Barnyard Boogie
TTITLE6=You better believe it
TTITLE7=Early in the morning
TTITLE8=Roberta
TTITLE9=Pin-up girl
TTITLE10=I had a dream last night
TTITLE11=Jump, jive and wail
TTITLE12=Jive shark Boogie
TTITLE13=Chicken shack II
TTITLE14=I don't like it
TTITLE15=It's joogie
EXTD=
EXTT0=
EXTT1=
EXTT2=
EXTT3=
EXTT4=
EXTT5=
EXTT6=
EXTT7=
EXTT8=
EXTT9=
EXTT10=
EXTT11=
EXTT12=
EXTT13=
EXTT14=
EXTT15=
PLAYORDER=
